<svg xmlns="http://www.w3.org/2000/svg" width="30" height="24" viewBox="0 0 30 24">
  <g id="Icon_material-payment" data-name="Icon material-payment" transform="translate(-3 -6)" fill="none">
    <path d="M30,6H6A2.977,2.977,0,0,0,3.015,9L3,27a2.99,2.99,0,0,0,3,3H30a2.99,2.99,0,0,0,3-3V9A2.99,2.99,0,0,0,30,6Zm0,21H6V18H30Zm0-15H6V9H30Z" stroke="none"/>
    <path d="M 31.5 9 L 31.5 12 L 31.5 13.5 L 30 13.5 L 6 13.5 L 4.511251449584961 13.5 L 4.508750915527344 16.5 L 6 16.5 L 30 16.5 L 31.5 16.5 L 31.5 18 L 31.5 27 L 31.5 9 M 6 28.5 L 30 28.5 L 6 28.5 M 6 6 L 30 6 C 31.66500091552734 6 33 7.334999084472656 33 9 L 33 27 C 33 28.66500091552734 31.66500091552734 30 30 30 L 6 30 C 4.334999084472656 30 3 28.66500091552734 3 27 L 3.014999389648438 9 C 3.014999389648438 7.334999084472656 4.334999084472656 6 6 6 Z M 30 12 L 30 9 L 6 9 L 6 12 L 30 12 Z M 30 27 L 30 18 L 6 18 L 6 27 L 30 27 Z" stroke="none"/>
  </g>
</svg>
