<svg xmlns="http://www.w3.org/2000/svg" width="19" height="21.5" viewBox="0 0 19 21.5">
  <path id="Icon_awesome-shopping-bag" data-name="Icon awesome-shopping-bag" d="M13.75,6.25V5a5,5,0,0,0-10,0V6.25H0V16.875A3.125,3.125,0,0,0,3.125,20h11.25A3.125,3.125,0,0,0,17.5,16.875V6.25ZM6.25,5a2.5,2.5,0,0,1,5,0V6.25h-5ZM12.5,9.688a.937.937,0,1,1,.938-.937A.937.937,0,0,1,12.5,9.688Zm-7.5,0a.937.937,0,1,1,.938-.937A.937.937,0,0,1,5,9.688Z" transform="translate(0.75 0.75)" fill="none" stroke="#333" stroke-width="1.5"/>
</svg>
