<svg xmlns="http://www.w3.org/2000/svg" width="22.59" height="22.59" viewBox="0 0 22.59 22.59">
  <g id="Icon_ionic-ios-help-circle-outline" data-name="Icon ionic-ios-help-circle-outline" transform="translate(-3.375 -3.375)">
    <path id="Path_1" data-name="Path 1" d="M14.67,4.9A9.77,9.77,0,1,1,7.757,7.757,9.71,9.71,0,0,1,14.67,4.9m0-1.52A11.295,11.295,0,1,0,25.965,14.67,11.293,11.293,0,0,0,14.67,3.375Z" transform="translate(0 0)"/>
    <path id="Path_2" data-name="Path 2" d="M17.013,11.25c2.036,0,3.437,1.129,3.437,2.753a2.656,2.656,0,0,1-1.526,2.411c-.945.548-1.265.95-1.265,1.645v.429H15.775l-.016-.467a2.261,2.261,0,0,1,1.282-2.389c.918-.548,1.3-.9,1.3-1.569A1.318,1.318,0,0,0,16.883,12.9a1.374,1.374,0,0,0-1.455,1.336H13.5C13.538,12.483,14.83,11.25,17.013,11.25Zm-1.428,9.307a1.166,1.166,0,1,1,1.162,1.119A1.137,1.137,0,0,1,15.585,20.557Z" transform="translate(-2.306 -1.793)"/>
  </g>
</svg>
