<svg xmlns="http://www.w3.org/2000/svg" width="33" height="24" viewBox="0 0 33 24">
  <g id="Icon_material-local-shipping" data-name="Icon material-local-shipping" transform="translate(-1.5 -6)" fill="none">
    <path d="M30,12H25.5V6H4.5a3.009,3.009,0,0,0-3,3V25.5h3a4.5,4.5,0,0,0,9,0h9a4.5,4.5,0,0,0,9,0h3V18ZM9,27.75a2.25,2.25,0,1,1,2.25-2.25A2.247,2.247,0,0,1,9,27.75Zm20.25-13.5L32.19,18H25.5V14.25ZM27,27.75a2.25,2.25,0,1,1,2.25-2.25A2.247,2.247,0,0,1,27,27.75Z" stroke="none"/>
    <path d="M 4.5 8 C 3.957939147949219 8 3.5 8.457939147949219 3.5 9 L 3.5 23.5 L 4.5 23.5 L 5.250677108764648 23.5 C 5.967248916625977 22.16215515136719 7.379144668579102 21.25 9 21.25 C 10.6208553314209 21.25 12.03275108337402 22.16215515136719 12.74932289123535 23.5 L 13.5 23.5 L 22.5 23.5 L 23.25067901611328 23.5 C 23.96724891662598 22.16215515136719 25.3791446685791 21.25 27 21.25 C 28.6208553314209 21.25 30.03275108337402 22.16215515136719 30.74932098388672 23.5 L 31.5 23.5 L 32.5 23.5 L 32.5 20 L 32.18999862670898 20 L 25.5 20 L 23.5 20 L 23.5 18 L 23.5 14.25 L 23.5 12.25 L 23.5 12 L 23.5 8 L 4.5 8 M 4.5 6 L 25.5 6 L 25.5 12 L 30 12 L 34.5 18 L 34.5 25.5 L 31.5 25.5 C 31.5 27.98999977111816 29.48999977111816 30 27 30 C 24.51000022888184 30 22.5 27.98999977111816 22.5 25.5 L 13.5 25.5 C 13.5 27.98999977111816 11.48999977111816 30 9 30 C 6.510000228881836 30 4.5 27.98999977111816 4.5 25.5 L 1.5 25.5 L 1.5 9 C 1.5 7.350000381469727 2.849998474121094 6 4.5 6 Z M 32.18999862670898 18 L 29.25 14.25 L 25.5 14.25 L 25.5 18 L 32.18999862670898 18 Z M 9 27.75 C 10.2450008392334 27.75 11.25 26.74499893188477 11.25 25.5 C 11.25 24.25500106811523 10.2450008392334 23.25 9 23.25 C 7.754999160766602 23.25 6.75 24.25500106811523 6.75 25.5 C 6.75 26.74499893188477 7.754999160766602 27.75 9 27.75 Z M 27 27.75 C 28.24499893188477 27.75 29.25 26.74499893188477 29.25 25.5 C 29.25 24.25500106811523 28.24499893188477 23.25 27 23.25 C 25.75500106811523 23.25 24.75 24.25500106811523 24.75 25.5 C 24.75 26.74499893188477 25.75500106811523 27.75 27 27.75 Z" stroke="none"/>
  </g>
</svg>
