<svg xmlns="http://www.w3.org/2000/svg" width="22.941" height="22.058" viewBox="0 0 22.941 22.058">
  <g id="Icon_ionic-ios-heart" data-name="Icon ionic-ios-heart" transform="translate(-3.375 -3.938)" fill="none">
    <path d="M20.139,3.937h-.055a6.275,6.275,0,0,0-5.239,2.868A6.275,6.275,0,0,0,9.606,3.937H9.551a6.235,6.235,0,0,0-6.176,6.231,13.424,13.424,0,0,0,2.636,7.318A46.194,46.194,0,0,0,14.845,26a46.194,46.194,0,0,0,8.834-8.509,13.424,13.424,0,0,0,2.636-7.318A6.235,6.235,0,0,0,20.139,3.937Z" stroke="none"/>
    <path d="M 9.562362670898438 5.937501907348633 C 8.442726135253906 5.950521469116211 7.391817092895508 6.39527702331543 6.602516174316406 7.190422058105469 C 5.810935974121094 7.987861633300781 5.374996185302734 9.045661926269531 5.374996185302734 10.16898155212402 C 5.374996185302734 11.6925220489502 6.070775985717773 14.18102169036865 7.625205993652344 16.30606079101563 C 9.820301055908203 19.30699348449707 13.11037635803223 22.10100555419922 14.84601211547852 23.47776985168457 C 16.58005905151367 22.10342025756836 19.86438369750977 19.315185546875 22.06547737121582 16.30605316162109 C 23.61989593505859 14.18102169036865 24.31567764282227 11.6925220489502 24.31567764282227 10.16898155212402 C 24.31567764282227 9.045661926269531 23.87973785400391 7.987861633300781 23.08815765380859 7.190422058105469 C 22.29885673522949 6.39527702331543 21.24794769287109 5.950521469116211 20.12831115722656 5.937501907348633 L 20.08419799804688 5.937501907348633 C 18.65251731872559 5.937501907348633 17.32047653198242 6.670011520385742 16.52098655700684 7.896951675415039 L 14.84534645080566 10.46850204467773 L 13.16968727111816 7.896961212158203 C 12.37018775939941 6.670011520385742 11.03814697265625 5.937501907348633 9.606477737426758 5.937501907348633 L 9.562362670898438 5.937501907348633 M 9.551336288452148 3.937501907348633 C 9.567876815795898 3.937501907348633 9.589937210083008 3.937501907348633 9.606477737426758 3.937501907348633 C 11.7957763671875 3.937501907348633 13.7313871383667 5.095561981201172 14.8453369140625 6.805082321166992 C 15.95927715301514 5.095561981201172 17.8948974609375 3.937501907348633 20.08419799804688 3.937501907348633 C 20.10073661804199 3.937501907348633 20.1227970123291 3.937501907348633 20.13933563232422 3.937501907348633 C 23.5528678894043 3.9705810546875 26.31567764282227 6.744421005249023 26.31567764282227 10.16898155212402 C 26.31567764282227 12.20937156677246 25.42231750488281 15.10453224182129 23.67970657348633 17.48683166503906 C 20.35992813110352 22.02534103393555 14.8453369140625 25.99584197998047 14.8453369140625 25.99584197998047 C 14.8453369140625 25.99584197998047 9.330747604370117 22.02534103393555 6.010967254638672 17.48683166503906 C 4.268356323242188 15.10453224182129 3.374996185302734 12.20937156677246 3.374996185302734 10.16898155212402 C 3.374996185302734 6.744421005249023 6.137807846069336 3.9705810546875 9.551336288452148 3.937501907348633 Z" stroke="none"/>
  </g>
</svg>
